<mxfile host="Electron" agent="Mozilla/5.0 (Windows NT 10.0; Win64; x64) AppleWebKit/537.36 (KHTML, like Gecko) draw.io/27.0.9 Chrome/134.0.6998.205 Electron/35.4.0 Safari/537.36" version="27.0.9">
  <diagram name="Page-1" id="61YCsERM5s_f9Qi-rrye">
    <mxGraphModel dx="1892" dy="722" grid="1" gridSize="10" guides="1" tooltips="1" connect="1" arrows="1" fold="1" page="1" pageScale="1" pageWidth="850" pageHeight="1100" math="0" shadow="0">
      <root>
        <mxCell id="0" />
        <mxCell id="1" parent="0" />
        <mxCell id="-2N0Do13hJEui-hXtQ_H-1" value="&lt;font style=&quot;font-size: 24px;&quot;&gt;&lt;b&gt;Data Integration Model&lt;/b&gt;&lt;/font&gt;" style="text;html=1;align=center;verticalAlign=middle;whiteSpace=wrap;rounded=0;fillColor=default;strokeColor=default;" parent="1" vertex="1">
          <mxGeometry x="260" y="50" width="330" height="30" as="geometry" />
        </mxCell>
        <mxCell id="-2N0Do13hJEui-hXtQ_H-2" value="&lt;font style=&quot;font-size: 15px;&quot;&gt;crm_cust_info&lt;/font&gt;" style="swimlane;fontStyle=0;childLayout=stackLayout;horizontal=1;startSize=30;horizontalStack=0;resizeParent=1;resizeParentMax=0;resizeLast=0;collapsible=1;marginBottom=0;whiteSpace=wrap;html=1;fillColor=#1ba1e2;fontColor=#ffffff;strokeColor=#006EAF;" parent="1" vertex="1">
          <mxGeometry x="295" y="222" width="140" height="90" as="geometry" />
        </mxCell>
        <mxCell id="-2N0Do13hJEui-hXtQ_H-3" value="&lt;font style=&quot;font-size: 14px;&quot;&gt;cst_id&lt;/font&gt;" style="text;strokeColor=none;fillColor=none;align=left;verticalAlign=middle;spacingLeft=4;spacingRight=4;overflow=hidden;points=[[0,0.5],[1,0.5]];portConstraint=eastwest;rotatable=0;whiteSpace=wrap;html=1;" parent="-2N0Do13hJEui-hXtQ_H-2" vertex="1">
          <mxGeometry y="30" width="140" height="30" as="geometry" />
        </mxCell>
        <mxCell id="Z5oIOyYqa05UzBhmNDqY-3" value="cst_key" style="text;strokeColor=none;fillColor=none;align=left;verticalAlign=middle;spacingLeft=4;spacingRight=4;overflow=hidden;points=[[0,0.5],[1,0.5]];portConstraint=eastwest;rotatable=0;whiteSpace=wrap;html=1;" parent="-2N0Do13hJEui-hXtQ_H-2" vertex="1">
          <mxGeometry y="60" width="140" height="30" as="geometry" />
        </mxCell>
        <mxCell id="-2N0Do13hJEui-hXtQ_H-6" value="&lt;b&gt;&lt;font&gt;Customer Information&lt;/font&gt;&lt;/b&gt;" style="text;html=1;align=center;verticalAlign=middle;whiteSpace=wrap;rounded=0;" parent="1" vertex="1">
          <mxGeometry x="250" y="186" width="216" height="30" as="geometry" />
        </mxCell>
        <mxCell id="-2N0Do13hJEui-hXtQ_H-7" value="&lt;font style=&quot;font-size: 15px;&quot;&gt;crm_prd_info&lt;/font&gt;" style="swimlane;fontStyle=0;childLayout=stackLayout;horizontal=1;startSize=30;horizontalStack=0;resizeParent=1;resizeParentMax=0;resizeLast=0;collapsible=1;marginBottom=0;whiteSpace=wrap;html=1;fillColor=#1ba1e2;fontColor=#ffffff;strokeColor=#006EAF;" parent="1" vertex="1">
          <mxGeometry x="295" y="380" width="140" height="60" as="geometry" />
        </mxCell>
        <mxCell id="-2N0Do13hJEui-hXtQ_H-8" value="&lt;span style=&quot;font-size: 14px;&quot;&gt;prd_key&lt;/span&gt;" style="text;strokeColor=none;fillColor=none;align=left;verticalAlign=middle;spacingLeft=4;spacingRight=4;overflow=hidden;points=[[0,0.5],[1,0.5]];portConstraint=eastwest;rotatable=0;whiteSpace=wrap;html=1;" parent="-2N0Do13hJEui-hXtQ_H-7" vertex="1">
          <mxGeometry y="30" width="140" height="30" as="geometry" />
        </mxCell>
        <mxCell id="-2N0Do13hJEui-hXtQ_H-9" value="&lt;b&gt;&lt;font&gt;Current and History Product Information&lt;/font&gt;&lt;/b&gt;" style="text;html=1;align=center;verticalAlign=middle;whiteSpace=wrap;rounded=0;" parent="1" vertex="1">
          <mxGeometry x="224" y="355" width="280" height="30" as="geometry" />
        </mxCell>
        <mxCell id="-2N0Do13hJEui-hXtQ_H-10" value="&lt;font style=&quot;font-size: 15px;&quot;&gt;crm_sales_details&lt;/font&gt;" style="swimlane;fontStyle=0;childLayout=stackLayout;horizontal=1;startSize=30;horizontalStack=0;resizeParent=1;resizeParentMax=0;resizeLast=0;collapsible=1;marginBottom=0;whiteSpace=wrap;html=1;fillColor=#1ba1e2;fontColor=#ffffff;strokeColor=#006EAF;" parent="1" vertex="1">
          <mxGeometry x="-30" y="270" width="140" height="90" as="geometry" />
        </mxCell>
        <mxCell id="-2N0Do13hJEui-hXtQ_H-12" value="cust_id" style="text;strokeColor=none;fillColor=none;align=left;verticalAlign=middle;spacingLeft=4;spacingRight=4;overflow=hidden;points=[[0,0.5],[1,0.5]];portConstraint=eastwest;rotatable=0;whiteSpace=wrap;html=1;" parent="-2N0Do13hJEui-hXtQ_H-10" vertex="1">
          <mxGeometry y="30" width="140" height="30" as="geometry" />
        </mxCell>
        <mxCell id="Z5oIOyYqa05UzBhmNDqY-21" value="&lt;span style=&quot;font-size: 14px;&quot;&gt;prd_key&lt;/span&gt;" style="text;strokeColor=none;fillColor=none;align=left;verticalAlign=middle;spacingLeft=4;spacingRight=4;overflow=hidden;points=[[0,0.5],[1,0.5]];portConstraint=eastwest;rotatable=0;whiteSpace=wrap;html=1;" parent="-2N0Do13hJEui-hXtQ_H-10" vertex="1">
          <mxGeometry y="60" width="140" height="30" as="geometry" />
        </mxCell>
        <mxCell id="-2N0Do13hJEui-hXtQ_H-13" value="Transactional records about sales and orders" style="text;html=1;align=center;verticalAlign=middle;whiteSpace=wrap;rounded=0;" parent="1" vertex="1">
          <mxGeometry x="-90" y="237" width="260" height="30" as="geometry" />
        </mxCell>
        <mxCell id="Z5oIOyYqa05UzBhmNDqY-1" value="&lt;font style=&quot;font-size: 15px; color: rgb(239, 239, 239);&quot;&gt;erp_cust_az12&lt;/font&gt;" style="swimlane;fontStyle=0;childLayout=stackLayout;horizontal=1;startSize=30;horizontalStack=0;resizeParent=1;resizeParentMax=0;resizeLast=0;collapsible=1;marginBottom=0;whiteSpace=wrap;html=1;fillColor=#76608a;strokeColor=#432D57;fontColor=#ffffff;" parent="1" vertex="1">
          <mxGeometry x="650" y="270" width="140" height="60" as="geometry" />
        </mxCell>
        <mxCell id="Z5oIOyYqa05UzBhmNDqY-2" value="&lt;font style=&quot;font-size: 14px;&quot;&gt;cid&lt;/font&gt;" style="text;strokeColor=none;fillColor=none;align=left;verticalAlign=middle;spacingLeft=4;spacingRight=4;overflow=hidden;points=[[0,0.5],[1,0.5]];portConstraint=eastwest;rotatable=0;whiteSpace=wrap;html=1;" parent="Z5oIOyYqa05UzBhmNDqY-1" vertex="1">
          <mxGeometry y="30" width="140" height="30" as="geometry" />
        </mxCell>
        <mxCell id="Z5oIOyYqa05UzBhmNDqY-5" value="&lt;font style=&quot;font-size: 15px; color: rgb(239, 239, 239);&quot;&gt;erp_loc_a101&lt;/font&gt;" style="swimlane;fontStyle=0;childLayout=stackLayout;horizontal=1;startSize=30;horizontalStack=0;resizeParent=1;resizeParentMax=0;resizeLast=0;collapsible=1;marginBottom=0;whiteSpace=wrap;html=1;fillColor=#76608a;fontColor=#ffffff;strokeColor=#432D57;" parent="1" vertex="1">
          <mxGeometry x="650" y="410" width="140" height="60" as="geometry" />
        </mxCell>
        <mxCell id="Z5oIOyYqa05UzBhmNDqY-6" value="&lt;font style=&quot;font-size: 14px;&quot;&gt;cid&lt;/font&gt;" style="text;strokeColor=none;fillColor=none;align=left;verticalAlign=middle;spacingLeft=4;spacingRight=4;overflow=hidden;points=[[0,0.5],[1,0.5]];portConstraint=eastwest;rotatable=0;whiteSpace=wrap;html=1;" parent="Z5oIOyYqa05UzBhmNDqY-5" vertex="1">
          <mxGeometry y="30" width="140" height="30" as="geometry" />
        </mxCell>
        <mxCell id="Z5oIOyYqa05UzBhmNDqY-8" value="&lt;b&gt;Extra Customer Information (Birthdate)&lt;/b&gt;" style="text;html=1;align=center;verticalAlign=middle;whiteSpace=wrap;rounded=0;" parent="1" vertex="1">
          <mxGeometry x="640" y="237" width="170" height="30" as="geometry" />
        </mxCell>
        <mxCell id="Z5oIOyYqa05UzBhmNDqY-9" value="&lt;b&gt;Location of Customer(Country)&amp;nbsp;&lt;/b&gt;" style="text;html=1;align=center;verticalAlign=middle;whiteSpace=wrap;rounded=0;" parent="1" vertex="1">
          <mxGeometry x="630" y="380" width="190" height="30" as="geometry" />
        </mxCell>
        <mxCell id="Z5oIOyYqa05UzBhmNDqY-10" value="&lt;font style=&quot;font-size: 15px; color: rgb(239, 239, 239);&quot;&gt;erp_px_cat_g1v2&lt;/font&gt;" style="swimlane;fontStyle=0;childLayout=stackLayout;horizontal=1;startSize=30;horizontalStack=0;resizeParent=1;resizeParentMax=0;resizeLast=0;collapsible=1;marginBottom=0;whiteSpace=wrap;html=1;fillColor=#76608a;fontColor=#ffffff;strokeColor=#432D57;" parent="1" vertex="1">
          <mxGeometry x="655" y="550" width="140" height="60" as="geometry" />
        </mxCell>
        <mxCell id="Z5oIOyYqa05UzBhmNDqY-12" value="&lt;font style=&quot;font-size: 14px;&quot;&gt;id&lt;/font&gt;" style="text;strokeColor=none;fillColor=none;align=left;verticalAlign=middle;spacingLeft=4;spacingRight=4;overflow=hidden;points=[[0,0.5],[1,0.5]];portConstraint=eastwest;rotatable=0;whiteSpace=wrap;html=1;" parent="Z5oIOyYqa05UzBhmNDqY-10" vertex="1">
          <mxGeometry y="30" width="140" height="30" as="geometry" />
        </mxCell>
        <mxCell id="Z5oIOyYqa05UzBhmNDqY-13" style="edgeStyle=orthogonalEdgeStyle;rounded=0;orthogonalLoop=1;jettySize=auto;html=1;entryX=1;entryY=0.5;entryDx=0;entryDy=0;" parent="1" source="Z5oIOyYqa05UzBhmNDqY-12" target="-2N0Do13hJEui-hXtQ_H-8" edge="1">
          <mxGeometry relative="1" as="geometry" />
        </mxCell>
        <mxCell id="Z5oIOyYqa05UzBhmNDqY-15" value="&lt;b&gt;Product Categories&lt;/b&gt;" style="text;html=1;align=center;verticalAlign=middle;whiteSpace=wrap;rounded=0;" parent="1" vertex="1">
          <mxGeometry x="654" y="514" width="120" height="36" as="geometry" />
        </mxCell>
        <mxCell id="Z5oIOyYqa05UzBhmNDqY-17" value="" style="rounded=1;whiteSpace=wrap;html=1;fillColor=none;dashed=1;" parent="1" vertex="1">
          <mxGeometry x="-70" y="170" width="540" height="380" as="geometry" />
        </mxCell>
        <mxCell id="Z5oIOyYqa05UzBhmNDqY-18" value="&lt;b&gt;&lt;font style=&quot;font-size: 24px;&quot;&gt;CRM&lt;/font&gt;&lt;/b&gt;" style="text;html=1;align=center;verticalAlign=middle;whiteSpace=wrap;rounded=0;fillColor=#1ba1e2;fontColor=#ffffff;strokeColor=#006EAF;" parent="1" vertex="1">
          <mxGeometry x="130" y="130" width="60" height="30" as="geometry" />
        </mxCell>
        <mxCell id="Z5oIOyYqa05UzBhmNDqY-19" value="" style="rounded=1;whiteSpace=wrap;html=1;fillColor=none;dashed=1;" parent="1" vertex="1">
          <mxGeometry x="500" y="165" width="400" height="505" as="geometry" />
        </mxCell>
        <mxCell id="Z5oIOyYqa05UzBhmNDqY-20" value="&lt;b&gt;&lt;font style=&quot;font-size: 24px;&quot;&gt;ERP&lt;/font&gt;&lt;/b&gt;" style="text;html=1;align=center;verticalAlign=middle;whiteSpace=wrap;rounded=0;fillColor=#76608a;fontColor=#ffffff;strokeColor=#432D57;" parent="1" vertex="1">
          <mxGeometry x="660" y="130" width="60" height="30" as="geometry" />
        </mxCell>
        <mxCell id="Z5oIOyYqa05UzBhmNDqY-22" style="edgeStyle=orthogonalEdgeStyle;rounded=0;orthogonalLoop=1;jettySize=auto;html=1;entryX=1;entryY=0.5;entryDx=0;entryDy=0;" parent="1" source="-2N0Do13hJEui-hXtQ_H-3" target="-2N0Do13hJEui-hXtQ_H-12" edge="1">
          <mxGeometry relative="1" as="geometry" />
        </mxCell>
        <mxCell id="Z5oIOyYqa05UzBhmNDqY-23" style="edgeStyle=orthogonalEdgeStyle;rounded=0;orthogonalLoop=1;jettySize=auto;html=1;" parent="1" source="-2N0Do13hJEui-hXtQ_H-8" target="Z5oIOyYqa05UzBhmNDqY-21" edge="1">
          <mxGeometry relative="1" as="geometry" />
        </mxCell>
        <mxCell id="X_lNlsi2JyU9aPVTg1-a-1" value="&lt;font style=&quot;font-size: 20px;&quot;&gt;&lt;b&gt;Products&lt;/b&gt;&lt;/font&gt;" style="text;html=1;align=center;verticalAlign=middle;whiteSpace=wrap;rounded=0;fillColor=#CAFBBC;fontColor=#010101;strokeColor=#3A5431;" parent="1" vertex="1">
          <mxGeometry x="295" y="440" width="140" height="30" as="geometry" />
        </mxCell>
        <mxCell id="X_lNlsi2JyU9aPVTg1-a-2" value="&lt;font style=&quot;font-size: 20px;&quot;&gt;&lt;b&gt;Products&lt;/b&gt;&lt;/font&gt;" style="text;html=1;align=center;verticalAlign=middle;whiteSpace=wrap;rounded=0;fillColor=#BAE3AE;fontColor=#272727;strokeColor=#3A5431;" parent="1" vertex="1">
          <mxGeometry x="655" y="610" width="140" height="30" as="geometry" />
        </mxCell>
        <mxCell id="X_lNlsi2JyU9aPVTg1-a-3" value="&lt;font style=&quot;font-size: 20px;&quot;&gt;&lt;b&gt;Customer&lt;/b&gt;&lt;/font&gt;" style="text;html=1;align=center;verticalAlign=middle;whiteSpace=wrap;rounded=0;fillColor=#66B2FF;strokeColor=#FFAAE4;fontColor=#000000;" parent="1" vertex="1">
          <mxGeometry x="650" y="470" width="140" height="30" as="geometry" />
        </mxCell>
        <mxCell id="X_lNlsi2JyU9aPVTg1-a-4" value="&lt;font style=&quot;font-size: 20px;&quot;&gt;&lt;b&gt;Customer&lt;/b&gt;&lt;/font&gt;" style="text;html=1;align=center;verticalAlign=middle;whiteSpace=wrap;rounded=0;fillColor=#66B2FF;strokeColor=#FFAAE4;fontColor=#0F0F0F;" parent="1" vertex="1">
          <mxGeometry x="650" y="330" width="140" height="30" as="geometry" />
        </mxCell>
        <mxCell id="X_lNlsi2JyU9aPVTg1-a-5" value="&lt;font style=&quot;font-size: 20px;&quot;&gt;&lt;b&gt;Customer&lt;/b&gt;&lt;/font&gt;" style="text;html=1;align=center;verticalAlign=middle;whiteSpace=wrap;rounded=0;fillColor=#66B2FF;strokeColor=#FFAAE4;fontColor=#000000;" parent="1" vertex="1">
          <mxGeometry x="295" y="312" width="140" height="30" as="geometry" />
        </mxCell>
        <mxCell id="X_lNlsi2JyU9aPVTg1-a-6" value="&lt;font style=&quot;font-size: 20px;&quot;&gt;&lt;b&gt;Sales&lt;/b&gt;&lt;/font&gt;" style="text;html=1;align=center;verticalAlign=middle;whiteSpace=wrap;rounded=0;fillColor=#E5CCFF;strokeColor=#FFAAE4;fontColor=#121212;" parent="1" vertex="1">
          <mxGeometry x="-30" y="360" width="140" height="30" as="geometry" />
        </mxCell>
        <mxCell id="X_lNlsi2JyU9aPVTg1-a-9" style="edgeStyle=orthogonalEdgeStyle;rounded=0;orthogonalLoop=1;jettySize=auto;html=1;entryX=0.944;entryY=0.342;entryDx=0;entryDy=0;entryPerimeter=0;" parent="1" source="Z5oIOyYqa05UzBhmNDqY-6" target="Z5oIOyYqa05UzBhmNDqY-17" edge="1">
          <mxGeometry relative="1" as="geometry" />
        </mxCell>
        <mxCell id="X_lNlsi2JyU9aPVTg1-a-10" style="edgeStyle=orthogonalEdgeStyle;rounded=0;orthogonalLoop=1;jettySize=auto;html=1;entryX=0.963;entryY=0.342;entryDx=0;entryDy=0;entryPerimeter=0;" parent="1" source="Z5oIOyYqa05UzBhmNDqY-2" target="Z5oIOyYqa05UzBhmNDqY-17" edge="1">
          <mxGeometry relative="1" as="geometry" />
        </mxCell>
      </root>
    </mxGraphModel>
  </diagram>
</mxfile>
